<?xml version="1.0" encoding="UTF-8"?>
<svg version="1.1" xmlns="http://www.w3.org/2000/svg" width="32" height="32">
<path d="M0 0 C1.34721283 0.63815344 2.68747118 1.29325371 4 2 C4.53625 1.34 5.0725 0.68 5.625 0 C8 -2 8 -2 11 -2.5 C14.67186334 -1.88802278 15.7878735 -0.949502 18 2 C18.96717621 4.96433229 19.1081654 7.6447525 19.0625 10.75 C19.05347656 11.54921875 19.04445312 12.3484375 19.03515625 13.171875 C19.02355469 13.77515625 19.01195312 14.3784375 19 15 C18.34 15 17.68 15 17 15 C17.37125 15.928125 17.7425 16.85625 18.125 17.8125 C18.41375 18.864375 18.7025 19.91625 19 21 C18.34 21.99 17.68 22.98 17 24 C15.0546875 24.29296875 15.0546875 24.29296875 12.875 24.1875 C11.59625 24.125625 10.3175 24.06375 9 24 C8.34 21.36 7.68 18.72 7 16 C3.62182575 15.15545644 1.32534757 14.89155081 -2 16 C-1.79375 17.11375 -1.5875 18.2275 -1.375 19.375 C-1.25125 20.57125 -1.1275 21.7675 -1 23 C-3 25 -3 25 -6.5 25.25 C-10 25 -10 25 -12 23 C-12.04092937 20.66702567 -12.04241723 18.33294775 -12 16 C-12.33 15.67 -12.66 15.34 -13 15 C-13.09908783 13.21059028 -13.12970379 11.41714492 -13.125 9.625 C-13.12757812 8.64789063 -13.13015625 7.67078125 -13.1328125 6.6640625 C-13 4 -13 4 -12 1 C-7.35205807 -2.13465851 -5.06109459 -2.3104997 0 0 Z " fill="#A2B460" transform="translate(13,6)"/>
<path d="M0 0 C2.75 1.375 2.75 1.375 4.75 4.375 C3.76 4.375 2.77 4.375 1.75 4.375 C1.75 3.715 1.75 3.055 1.75 2.375 C0.1 2.375 -1.55 2.375 -3.25 2.375 C-2.26 3.035 -1.27 3.695 -0.25 4.375 C-0.91 4.375 -1.57 4.375 -2.25 4.375 C-2.25 5.035 -2.25 5.695 -2.25 6.375 C-1.59 6.705 -0.93 7.035 -0.25 7.375 C-0.25 10.48757569 -0.42361624 12.48265685 -1.25 15.375 C-2.24 15.375 -3.23 15.375 -4.25 15.375 C-4.25 16.695 -4.25 18.015 -4.25 19.375 C-3.59 19.705 -2.93 20.035 -2.25 20.375 C-2.91 20.705 -3.57 21.035 -4.25 21.375 C-3.92 22.035 -3.59 22.695 -3.25 23.375 C-3.91 23.705 -4.57 24.035 -5.25 24.375 C-3.6 24.705 -1.95 25.035 -0.25 25.375 C-0.25 25.705 -0.25 26.035 -0.25 26.375 C-3.625 26.5 -3.625 26.5 -7.25 26.375 C-9.25 24.375 -9.25 24.375 -9.3125 20.8125 C-9.291875 19.678125 -9.27125 18.54375 -9.25 17.375 C-9.58 17.045 -9.91 16.715 -10.25 16.375 C-10.34908783 14.58559028 -10.37970379 12.79214492 -10.375 11 C-10.37757812 10.02289063 -10.38015625 9.04578125 -10.3828125 8.0390625 C-10.25 5.375 -10.25 5.375 -9.25 2.375 C-5.79653777 0.04592082 -4.14693625 -0.79748774 0 0 Z " fill="#C8D29A" transform="translate(10.25,4.625)"/>
<path d="M0 0 C2.96314646 1.14702444 4.86979539 2.67614043 7 5 C7.66 5.66 8.32 6.32 9 7 C8.34 8.98 7.68 10.96 7 13 C6.67 13 6.34 13 6 13 C5.67 11.02 5.34 9.04 5 7 C1.62182575 6.15545644 -0.67465243 5.89155081 -4 7 C-3.814375 8.134375 -3.62875 9.26875 -3.4375 10.4375 C-3.293125 11.613125 -3.14875 12.78875 -3 14 C-4 15 -4 15 -7.5625 15.0625 C-8.696875 15.041875 -9.83125 15.02125 -11 15 C-10.67 14.01 -10.34 13.02 -10 12 C-10.99 12.495 -10.99 12.495 -12 13 C-11.67 12.01 -11.34 11.02 -11 10 C-10.34 9.67 -9.68 9.34 -9 9 C-9 7.68 -9 6.36 -9 5 C-8.01 5 -7.02 5 -6 5 C-5.67 4.01 -5.34 3.02 -5 2 C-4.01 2.33 -3.02 2.66 -2 3 C-2 2.34 -2 1.68 -2 1 C-1.34 0.67 -0.68 0.34 0 0 Z " fill="#A6B178" transform="translate(15,15)"/>
<path d="M0 0 C0.66 0 1.32 0 2 0 C2.8723412 2.99480917 3.10829766 5.63575911 3.0625 8.75 C3.05347656 9.54921875 3.04445313 10.3484375 3.03515625 11.171875 C3.02355469 11.77515625 3.01195312 12.3784375 3 13 C2.34 13 1.68 13 1 13 C1.37125 13.928125 1.7425 14.85625 2.125 15.8125 C2.41375 16.864375 2.7025 17.91625 3 19 C2.34 19.99 1.68 20.98 1 22 C-0.9453125 22.29296875 -0.9453125 22.29296875 -3.125 22.1875 C-4.40375 22.125625 -5.6825 22.06375 -7 22 C-6.05341663 19.37869219 -5.23221815 17.27866178 -3.4375 15.125 C-1.43687729 12.16755774 -1.26060572 9.51817716 -1 6 C-1.33 5.34 -1.66 4.68 -2 4 C-1.0625 1.875 -1.0625 1.875 0 0 Z " fill="#84914F" transform="translate(29,8)"/>
<path d="M0 0 C1.67542976 0.28604898 3.34385343 0.61781233 5 1 C5 1.66 5 2.32 5 3 C7.31 3 9.62 3 12 3 C12.33 2.01 12.66 1.02 13 0 C14.65 0 16.3 0 18 0 C18.625 1.875 18.625 1.875 19 4 C18.34 4.66 17.68 5.32 17 6 C14.66327016 5.6913753 12.33006911 5.35543427 10 5 C6.57786512 5.38023721 5.45536509 5.54463491 3 8 C3 7.34 3 6.68 3 6 C2.01 5.67 1.02 5.34 0 5 C0.33 4.34 0.66 3.68 1 3 C0.34 2.34 -0.32 1.68 -1 1 C-0.67 0.67 -0.34 0.34 0 0 Z " fill="#7E895A" transform="translate(7,6)"/>
<path d="M0 0 C2.75 1.375 2.75 1.375 4.75 4.375 C3.76 4.375 2.77 4.375 1.75 4.375 C1.75 3.715 1.75 3.055 1.75 2.375 C0.1 2.375 -1.55 2.375 -3.25 2.375 C-2.26 3.035 -1.27 3.695 -0.25 4.375 C-0.91 4.375 -1.57 4.375 -2.25 4.375 C-2.58 5.365 -2.91 6.355 -3.25 7.375 C-3.745 8.014375 -4.24 8.65375 -4.75 9.3125 C-6.26379953 11.39397436 -6.80259682 12.86954218 -7.25 15.375 C-7.91 15.375 -8.57 15.375 -9.25 15.375 C-9.25 11.085 -9.25 6.795 -9.25 2.375 C-5.7722362 0.2220986 -4.09679634 -0.78784545 0 0 Z " fill="#AAB77A" transform="translate(10.25,4.625)"/>
<path d="M0 0 C0.99 0.33 1.98 0.66 3 1 C2.979375 2.11375 2.95875 3.2275 2.9375 4.375 C2.73619282 7.83215921 2.73619282 7.83215921 4 10 C3.38125 10.28875 2.7625 10.5775 2.125 10.875 C-0.13325765 11.93720042 -0.13325765 11.93720042 -2 14 C-2 11.66666667 -2 9.33333333 -2 7 C-3.45833358 5.37485532 -3.45833358 5.37485532 -5 4 C-2.6875 1.9375 -2.6875 1.9375 0 0 Z " fill="#B8CA5F" transform="translate(24,14)"/>
<path d="M0 0 C0.66 0 1.32 0 2 0 C2.8723412 2.99480917 3.10829766 5.63575911 3.0625 8.75 C3.05347656 9.54921875 3.04445313 10.3484375 3.03515625 11.171875 C3.01775391 12.07679687 3.01775391 12.07679687 3 13 C2.01 13.33 1.02 13.66 0 14 C-0.33 13.67 -0.66 13.34 -1 13 C-1 10.66666667 -1 8.33333333 -1 6 C-1.33 5.34 -1.66 4.68 -2 4 C-1.0625 1.875 -1.0625 1.875 0 0 Z " fill="#899267" transform="translate(29,8)"/>
<path d="M0 0 C1.65 0.33 3.3 0.66 5 1 C5 4.11257569 4.82638376 6.10765685 4 9 C3.01 9 2.02 9 1 9 C1 10.32 1 11.64 1 13 C1.66 13.33 2.32 13.66 3 14 C2.01 14 1.02 14 0 14 C-0.19627391 12.41773035 -0.38165538 10.83410729 -0.5625 9.25 C-0.66691406 8.36828125 -0.77132813 7.4865625 -0.87890625 6.578125 C-0.99456676 4.11567549 -0.73638695 2.33461936 0 0 Z " fill="#BCD063" transform="translate(5,11)"/>
<path d="M0 0 C0.99 0 1.98 0 3 0 C3.33 2.64 3.66 5.28 4 8 C1.69 8 -0.62 8 -3 8 C-2.67 7.01 -2.34 6.02 -2 5 C-2.99 5.495 -2.99 5.495 -4 6 C-3.67 5.01 -3.34 4.02 -3 3 C-2.01 2.67 -1.02 2.34 0 2 C0 1.34 0 0.68 0 0 Z " fill="#7D8B41" transform="translate(7,22)"/>
<path d="M0 0 C0.99 0 1.98 0 3 0 C3 0.66 3 1.32 3 2 C4.98 2 6.96 2 9 2 C8.67 2.99 8.34 3.98 8 5 C5.9375 5.6875 5.9375 5.6875 4 6 C3.67 5.34 3.34 4.68 3 4 C1.68 4 0.36 4 -1 4 C-1 4.66 -1 5.32 -1 6 C-4.875 4.25 -4.875 4.25 -6 2 C-4.35 2 -2.7 2 -1 2 C-0.67 1.34 -0.34 0.68 0 0 Z " fill="#76814D" transform="translate(14,12)"/>
<path d="M0 0 C-0.99 0.495 -0.99 0.495 -2 1 C-2 1.66 -2 2.32 -2 3 C-3.65 2.67 -5.3 2.34 -7 2 C-7 1.34 -7 0.68 -7 0 C-7.99 0 -8.98 0 -10 0 C-10.33 0.99 -10.66 1.98 -11 3 C-11.99 2.67 -12.98 2.34 -14 2 C-12 -1 -12 -1 -9.8125 -1.8125 C-6.20766938 -2.05282204 -3.4035617 -1.13452057 0 0 Z " fill="#B7CE5B" transform="translate(24,12)"/>
<path d="M0 0 C0.66 0.33 1.32 0.66 2 1 C2.99716532 4.98866127 3.0502717 8.0323069 2 12 C1.67 12 1.34 12 1 12 C0.67 10.02 0.34 8.04 0 6 C-1.32 5.67 -2.64 5.34 -4 5 C-3.34 4.67 -2.68 4.34 -2 4 C-0.86649466 1.98330173 -0.86649466 1.98330173 0 0 Z " fill="#A8BC58" transform="translate(26,9)"/>
<path d="M0 0 C1.67542976 0.28604898 3.34385343 0.61781233 5 1 C4.67 3.31 4.34 5.62 4 8 C3.67 7.34 3.34 6.68 3 6 C2.01 5.67 1.02 5.34 0 5 C0.33 4.34 0.66 3.68 1 3 C0.34 2.34 -0.32 1.68 -1 1 C-0.67 0.67 -0.34 0.34 0 0 Z " fill="#667048" transform="translate(7,6)"/>
<path d="M0 0 C-0.66 2.31 -1.32 4.62 -2 7 C-2.33 7 -2.66 7 -3 7 C-3.33 5.02 -3.66 3.04 -4 1 C-6.31 0.67 -8.62 0.34 -11 0 C-10 -2 -10 -2 -8.3125 -2.8125 C-4.94973379 -3.08515672 -2.87326933 -1.63253939 0 0 Z " fill="#B0B691" transform="translate(24,21)"/>
<path d="M0 0 C0.99 0.33 1.98 0.66 3 1 C2.3125 2.9375 2.3125 2.9375 1 5 C-1.625 5.75 -1.625 5.75 -4 6 C-4 5.01 -4 4.02 -4 3 C-2.1875 1.25 -2.1875 1.25 0 0 Z " fill="#C3D46C" transform="translate(24,14)"/>
<path d="M0 0 C2.0877193 3.43859649 2.0877193 3.43859649 1.6875 6 C1.3471875 6.99 1.3471875 6.99 1 8 C0.814375 8.7425 0.62875 9.485 0.4375 10.25 C0.293125 10.8275 0.14875 11.405 0 12 C-0.66 12 -1.32 12 -2 12 C-2 9.36 -2 6.72 -2 4 C-1.34 4 -0.68 4 0 4 C0 2.68 0 1.36 0 0 Z " fill="#829743" transform="translate(3,8)"/>
</svg>
